<svg xmlns="http://www.w3.org/2000/svg" width="112" height="52" viewBox="0 0 112 52">
<rect width="100%" height="100%" fill="white"/>
<text x="8" y="14" font-family="monospace" font-size="10" fill="black">mario_sheet</text>
<rect x="8" y="20" width="16" height="16" fill="none" stroke="#000" stroke-width="0.5"/>
<line x1="8" y1="36" x2="24" y2="36" stroke="#888" stroke-width="0.3"/>
<text x="9" y="28" font-family="monospace" font-size="3" fill="black">MarioIdle</text>
<rect x="24" y="20" width="16" height="16" fill="none" stroke="#000" stroke-width="0.5"/>
<line x1="24" y1="36" x2="40" y2="36" stroke="#888" stroke-width="0.3"/>
<text x="25" y="28" font-family="monospace" font-size="3" fill="black">MarioRun1</text>
<rect x="40" y="20" width="16" height="16" fill="none" stroke="#000" stroke-width="0.5"/>
<line x1="40" y1="36" x2="56" y2="36" stroke="#888" stroke-width="0.3"/>
<text x="41" y="28" font-family="monospace" font-size="3" fill="black">MarioRun2</text>
<rect x="56" y="20" width="16" height="16" fill="none" stroke="#000" stroke-width="0.5"/>
<line x1="56" y1="36" x2="72" y2="36" stroke="#888" stroke-width="0.3"/>
<text x="57" y="28" font-family="monospace" font-size="3" fill="black">MarioJump</text>
<rect x="72" y="20" width="16" height="16" fill="none" stroke="#000" stroke-width="0.5"/>
<line x1="72" y1="36" x2="88" y2="36" stroke="#888" stroke-width="0.3"/>
<text x="73" y="28" font-family="monospace" font-size="3" fill="black">MarioClimb1</text>
<rect x="88" y="20" width="16" height="16" fill="none" stroke="#000" stroke-width="0.5"/>
<line x1="88" y1="36" x2="104" y2="36" stroke="#888" stroke-width="0.3"/>
<text x="89" y="28" font-family="monospace" font-size="3" fill="black">MarioClimb2</text>
</svg>